<svg width="56" height="57" viewBox="0 0 56 57" fill="none" xmlns="http://www.w3.org/2000/svg">
<path d="M19.339 3.7182L16.1138 11.5837L6.17065 1.64054C10.4278 -0.538175 15.7751 0.154377 19.339 3.7182Z" fill="#4BB3A4"/>
<path d="M11.3271 11.7276L23.2148 28.2556L30.4637 21.0067L22.5698 13.1128C22.9805 9.77098 21.9024 6.28295 19.3371 3.71771L11.3271 11.7276Z" fill="#60D9CE"/>
<path d="M11.3275 11.7277L25.5354 25.9356L20.6058 30.8651L12.7119 22.9712C9.37089 23.3812 5.88287 22.3031 3.31763 19.7377C-0.24629 16.1738 -0.938403 10.8274 1.2402 6.56995L8.86263 14.1924L11.3275 11.7277Z" fill="#4BB3A4"/>
<path d="M36.6631 53.0818L39.8883 45.2164L49.8314 55.1595C45.5741 57.3382 40.2269 56.6457 36.6631 53.0818Z" fill="#60D9CE"/>
<path d="M44.6711 45.0724L32.7833 28.5443L25.5344 35.7932L33.4283 43.6872C33.0176 47.0289 34.0957 50.517 36.6611 53.0822L44.6711 45.0724Z" fill="#4BB3A4"/>
<path d="M44.6732 45.0728L30.4653 30.8649L35.3949 25.9353L43.2888 33.8292C46.6298 33.4193 50.1178 34.4974 52.6831 37.0627C56.2468 40.6264 56.939 45.9729 54.7604 50.2304L47.1379 42.608L44.6732 45.0728Z" fill="#60D9CE"/>
<path d="M53.2404 3.15887L54.4728 4.39118C56.506 6.42443 56.506 9.75168 54.4728 11.7849L51.4807 14.7769L43.458 9.84782L53.2404 3.15887Z" fill="#FF6126"/>
<path d="M52.0093 1.9262L53.2416 3.15851L45.0059 11.3942L41.6235 4.91822L44.6155 1.9262C46.6488 -0.107156 49.976 -0.107156 52.0093 1.9262Z" fill="#FF8151"/>
<path d="M46.5519 9.84778L51.4812 14.777L46.5519 19.7061L38.5293 14.777L46.5519 9.84778Z" fill="#A3FDF6"/>
<path d="M41.6242 4.91858L46.5534 9.84782L40.0774 16.3237L36.6951 9.84782L41.6242 4.91858Z" fill="#DBFFFA"/>
<path d="M4.52349 50.3295L5.60617 54.5058L0.656494 55.7433L4.52349 50.3295Z" fill="#000E0F"/>
<path d="M1.89394 50.7938L3.75011 52.6499L0.656494 55.7435L1.89394 50.7938Z" fill="#116371"/>
<path d="M9.64616 45.2072L13.8016 52.4563L5.60679 54.5057L3.75073 52.6495L9.64616 45.2072Z" fill="#FFA07D"/>
<path d="M3.94247 42.5982L8.87202 47.5278L3.74997 52.6498L1.8938 50.7938L3.94247 42.5982Z" fill="#FFC0A8"/>
<path d="M41.6241 14.7764L46.5533 19.7056L13.8023 52.4567L8.87305 47.5274L22.9284 28.8318L41.6241 14.7764Z" fill="#FFD15E"/>
<path d="M41.6217 14.7762L36.6926 9.84717L3.94196 42.5979L8.871 47.5269L41.6217 14.7762Z" fill="#FFEA7C"/>
</svg>
