<svg width="57" height="45" viewBox="0 0 57 45" fill="none" xmlns="http://www.w3.org/2000/svg">
<path d="M4.62632 20.3456C2.44825 20.3456 0.923828 18.9842 0.923828 16.8062L0.993689 4.39467C0.993689 3.0547 1.33353 1.90178 2.35495 1.18909C2.99384 0.743337 3.77086 0.481812 4.60908 0.481812H52.7226C54.9007 0.481812 56.6663 2.24748 56.6663 4.42554V16.8201C56.6663 17.7143 56.3688 18.539 55.8671 19.2007C55.147 20.1504 54.0426 20.4156 52.7588 20.4156C49.1414 20.4155 4.62632 20.3456 4.62632 20.3456Z" fill="#EE6161"/>
<path d="M55.9599 19.0742C55.2478 20.0962 54.0635 20.7644 52.7238 20.7644H4.61024C2.43217 20.7644 0.666504 18.9987 0.666504 16.8206V4.42606C0.666504 3.08631 1.33468 1.90207 2.35667 1.18994V16.8206C2.35667 18.0624 3.3674 19.0742 4.61024 19.0742H55.9599Z" fill="#E94444"/>
<path d="M43.0225 29.0979C43.0225 29.0979 41.2832 29.1113 40.9682 29.946V29.221C40.9682 27.9615 38.5464 27.5772 38.5464 27.5772C38.5464 27.5772 36.3679 27.9615 36.3679 29.221C36.3671 28.6109 36.3662 28.4767 36.3654 27.8665C36.3654 26.607 34.1892 26.3162 34.1892 26.3162C34.1892 26.3162 32.1111 26.2988 31.8458 27.2678V26.3162V19.9065C31.8458 18.647 29.5457 17.9317 29.5457 17.9317C29.5457 17.9317 27.6472 18.7949 27.6472 20.0544L27.2455 28.3317L26.1948 28.7313C24.6309 28.7313 23.4763 29.5698 23.4763 31.1465L23.439 34.2702C23.439 36.7009 24.4859 38.884 26.4332 40.3172L26.8838 40.6488C27.8953 41.4137 28.7384 42.4127 28.8447 43.6742C28.8592 43.8473 29.0004 43.9819 29.1741 43.9819L42.0596 43.926C42.2423 43.926 42.3904 43.7779 42.3904 43.5951C42.3904 43.1148 42.9176 43.0313 43.0223 42.5682C43.2078 41.7477 43.5534 40.9674 44.0438 40.2749C44.8113 39.1913 45.2238 37.8933 45.2238 36.562V30.7324C45.2237 29.5095 43.0225 29.0979 43.0225 29.0979Z" fill="#F1D0A5"/>
<path d="M30.359 42.5679C30.1793 42.5679 30.0169 42.4585 29.9528 42.2906C29.5315 41.1876 28.7749 40.1865 27.7609 39.4203L27.2927 39.0746C25.7976 37.9748 24.9064 36.204 24.9064 34.3356V31.1833C24.9064 30.5874 25.38 30.0847 25.9757 30.0823H25.9872H27.2474L27.9711 29.3899L27.2474 28.332H25.9872C25.7628 28.332 25.5455 28.361 25.3361 28.4108C25.3373 28.4099 25.3383 28.4088 25.3395 28.4078C24.0809 28.6921 23.1401 29.8982 23.156 31.1864V32.9368V34.3356C23.156 36.767 24.3069 39.0513 26.254 40.4851L26.7048 40.8162C27.7169 41.582 28.4652 42.7488 28.5717 44.0104C28.5864 44.1836 28.7276 44.3183 28.9014 44.3183H42.5337C42.7174 44.3183 42.8648 44.1695 42.8648 43.9871C42.8648 43.5058 42.9188 43.0303 43.0238 42.5679H30.359Z" fill="#F2BB88"/>
<path d="M31.8471 19.9054V20.9263C31.8471 20.329 31.6152 19.7852 31.2358 19.3787C30.6326 18.7323 29.5469 19.1675 29.5469 20.0517V34.2114C29.5469 34.8462 29.0323 35.3609 28.3975 35.3609C27.7626 35.3609 27.248 34.8462 27.248 34.2114V19.9054C27.248 18.6465 28.2778 17.6255 29.5468 17.6255C30.8173 17.6255 31.8471 18.6466 31.8471 19.9054Z" fill="#F2BB88"/>
<path d="M36.3678 28.8878C36.3678 28.3656 36.1909 27.8844 35.8933 27.4998C35.3287 26.7703 34.1537 27.1916 34.1537 28.1141V31.2925C34.1537 31.8115 33.7329 32.2323 33.214 32.2323H32.7825C32.2631 32.2323 31.8422 31.8108 31.8428 31.2915L31.8475 27.2672C32.113 26.2988 33.0056 25.5854 34.0675 25.5854C34.0967 25.5854 34.1259 25.5854 34.1536 25.5869C35.3847 25.632 36.3677 26.6355 36.3677 27.8667C36.3693 28.4764 36.3693 29.4975 36.3678 28.8878Z" fill="#F2BB88"/>
<path d="M40.9721 29.2204V30.2413C40.9721 29.644 40.7402 29.1003 40.3608 28.6937C39.7576 28.0473 38.6719 28.4826 38.6719 29.3667V31.3116C38.6719 31.8306 38.2512 32.2513 37.7322 32.2513H37.3172C36.7982 32.2513 36.3774 31.8306 36.3774 31.3116V29.0627C36.4377 27.8912 37.5028 26.918 38.6718 26.9404C39.9422 26.9406 40.9721 27.9615 40.9721 29.2204Z" fill="#F2BB88"/>
<path d="M45.2259 30.7315V31.7525C45.2259 30.9797 44.6306 30.2989 43.9044 29.9032C43.4214 29.6399 42.8324 29.9976 42.8324 30.5477V31.3207C42.8324 31.8346 42.4157 32.2513 41.9018 32.2513C41.3879 32.2513 40.9712 31.8346 40.9712 31.3207V29.9452C41.3056 29.0357 42.2626 28.4086 43.2699 28.5318C44.3697 28.6529 45.2259 29.5923 45.2259 30.7315Z" fill="#F2BB88"/>
<path d="M43.1257 13.5313V7.74588C43.1257 7.28311 42.7692 6.87961 42.3067 6.86575C41.8281 6.85133 41.4355 7.23511 41.4355 7.7105V13.496C41.4355 13.9587 41.7921 14.3622 42.2546 14.3761C42.7331 14.3904 43.1257 14.0067 43.1257 13.5313Z" fill="#F9F8F9"/>
<path d="M53.7939 8.58226C54.2693 8.58226 54.6529 8.1898 54.6386 7.71115C54.6248 7.2486 54.2213 6.89209 53.7585 6.89209H51.3636C50.8969 6.89209 50.5186 7.27046 50.5186 7.73718V13.5049C50.5186 13.9717 50.8969 14.35 51.3636 14.35H53.7585C54.2213 14.35 54.6248 13.9935 54.6386 13.531C54.653 13.0524 54.2693 12.6599 53.7939 12.6599H52.2087V11.4661H53.5793C54.0421 11.4661 54.4456 11.1096 54.4595 10.6471C54.4739 10.1685 54.0901 9.77597 53.6147 9.77597H52.2087V8.58226H53.7939Z" fill="#F9F8F9"/>
<path d="M18.4244 6.86536H16.7865C16.3198 6.86536 15.9414 7.24373 15.9414 7.71044V10.3908V10.3952V13.5113C15.9414 13.6292 15.9594 13.7478 16.0056 13.8562C16.1442 14.1822 16.4554 14.3765 16.7865 14.3765H16.7902C16.7902 14.3765 18.3443 14.3695 18.7726 14.3695C20.1025 14.3695 21.1844 13.2876 21.1844 11.9576C21.1844 11.2369 20.865 10.5908 20.3623 10.1485C20.5844 9.76896 20.6978 9.31858 20.6516 8.83824C20.5428 7.70909 19.5587 6.86536 18.4244 6.86536ZM18.4554 8.55553C18.7134 8.55553 18.9442 8.7437 18.9693 9.00049C18.998 9.29515 18.7662 9.54416 18.4774 9.54416C18.3884 9.54383 18.0631 9.54574 17.6317 9.54574V8.55553H18.4554ZM18.7726 12.6793C18.56 12.6793 18.0714 12.681 17.6316 12.6827V11.2367C17.6407 11.2357 18.6971 11.2358 18.7726 11.2358C19.1705 11.2358 19.4943 11.5596 19.4943 11.9575C19.4943 12.3554 19.1705 12.6793 18.7726 12.6793Z" fill="#F9F8F9"/>
<path d="M46.7965 6.86536H45.1586C44.6918 6.86536 44.3135 7.24373 44.3135 7.71044V13.5112C44.3135 13.6291 44.3315 13.7477 44.3777 13.8561C44.5163 14.1821 44.8275 14.3764 45.1586 14.3764H45.1623C45.1623 14.3764 46.7163 14.3694 47.1446 14.3694C48.4746 14.3694 49.5565 13.2874 49.5565 11.9575C49.5565 11.2368 49.2371 10.5907 48.7343 10.1483C48.9564 9.76884 49.0697 9.31836 49.0235 8.83812C48.9149 7.70909 47.9308 6.86536 46.7965 6.86536ZM46.8274 8.55553C47.0855 8.55553 47.3162 8.7437 47.3414 9.00049C47.3701 9.29515 47.1383 9.54416 46.8495 9.54416C46.7605 9.54383 46.4352 9.54574 46.0038 9.54574V8.55553H46.8274ZM47.1446 12.6793C46.9321 12.6793 46.4434 12.681 46.0036 12.6827V11.2367C46.0128 11.2357 47.0691 11.2358 47.1446 11.2358C47.5426 11.2358 47.8663 11.5596 47.8663 11.9575C47.8663 12.3554 47.5426 12.6793 47.1446 12.6793Z" fill="#F9F8F9"/>
<path d="M31.619 8.58896C32.1561 8.49352 32.69 8.60473 33.1299 8.89477C33.5058 9.14254 34.0228 9.0782 34.295 8.71955C34.5907 8.3298 34.4955 7.77745 34.0956 7.50725C33.3912 7.0313 32.5522 6.80966 31.6929 6.87726C29.7716 7.02837 28.2608 8.65239 28.24 10.5795C28.2173 12.6693 29.9106 14.3764 31.9953 14.3764C32.8914 14.3578 33.8333 14.0294 34.4762 13.2529C34.7762 12.8954 34.7296 12.3623 34.372 12.0624C34.0144 11.7623 33.4814 11.809 33.1815 12.1666C32.9423 12.4412 32.6033 12.6544 31.9953 12.6863C30.7503 12.6863 29.759 11.5789 29.9547 10.2974C30.0859 9.43832 30.7634 8.74096 31.619 8.58896Z" fill="#F9F8F9"/>
<path d="M5.57373 12.6859C5.04098 12.6859 4.52909 12.4776 4.19601 12.127C3.88457 11.7993 3.37391 11.7243 3.0201 12.006C2.63452 12.313 2.59339 12.8762 2.91903 13.2357C3.57583 13.9605 4.5434 14.3762 5.57373 14.3762C6.85747 14.3762 7.93625 13.5526 8.13884 12.4181C8.29208 11.5597 7.9083 10.4405 6.37171 9.8737C5.74883 9.64395 5.16324 9.39617 4.89045 9.27819C4.77484 9.22816 4.7025 9.10816 4.71963 8.98331C4.71974 8.98264 4.71985 8.98207 4.71985 8.9814C4.73146 8.90095 4.79163 8.70387 5.10037 8.6108C5.8579 8.38251 6.57194 8.94207 6.59425 8.95988C6.95155 9.25543 7.48091 9.20788 7.77974 8.85238C8.08002 8.49508 8.03383 7.962 7.67664 7.66171C7.61973 7.61394 6.26332 6.49516 4.61292 6.99252C3.76513 7.24796 3.16501 7.91794 3.04681 8.74128C2.93548 9.51651 3.27171 10.2624 3.92412 10.6878C4.05505 10.7702 4.80639 11.0878 5.78669 11.4594C5.96416 11.5249 6.53825 11.766 6.47481 12.1211C6.42636 12.3926 6.06804 12.6859 5.57373 12.6859Z" fill="#F9F8F9"/>
<path d="M24.9083 12.686C24.3756 12.686 23.8636 12.4777 23.5305 12.1271C23.219 11.7994 22.7084 11.7244 22.3546 12.0061C21.969 12.3131 21.9279 12.8763 22.2535 13.2358C22.9103 13.9606 23.878 14.3763 24.9082 14.3763C26.1919 14.3763 27.2706 13.5527 27.4732 12.4182C27.6264 11.5598 27.2428 10.4406 25.7061 9.87381C25.0832 9.64406 24.4977 9.39628 24.2248 9.2783C24.1092 9.22828 24.0367 9.10827 24.054 8.98343C24.0541 8.98275 24.0542 8.98219 24.0542 8.98151C24.0658 8.90117 24.126 8.70399 24.4347 8.61091C25.1914 8.38263 25.9051 8.94117 25.9286 8.95988C26.2858 9.25554 26.8153 9.20811 27.1141 8.85238C27.4144 8.49519 27.3682 7.962 27.0109 7.66171C26.954 7.61394 25.5976 6.49516 23.9472 6.99252C23.0994 7.24796 22.4991 7.91794 22.3811 8.74128C22.2697 9.51651 22.606 10.2624 23.2585 10.6878C23.3893 10.7703 24.1407 11.0878 25.1209 11.4594C25.2984 11.5249 25.8724 11.766 25.8091 12.1209C25.7609 12.3927 25.4026 12.686 24.9083 12.686Z" fill="#F9F8F9"/>
<path d="M12.5455 12.5567C12.3716 12.6442 12.1842 12.6875 11.9652 12.6864C11.7314 12.686 11.5288 12.6291 11.346 12.5124C10.9105 12.2342 10.823 12.0014 10.823 11.716V7.74599C10.823 7.28322 10.4665 6.87972 10.0039 6.86586C9.52538 6.85144 9.13281 7.23522 9.13281 7.71061V11.716C9.13281 12.6371 9.57136 13.3843 10.436 13.9366C10.7588 14.1416 11.3329 14.3673 11.9671 14.3764C12.4464 14.3764 12.8967 14.272 13.3056 14.0661C14.3128 13.5588 14.8677 12.7226 14.8677 11.7116V7.74588C14.8677 7.28311 14.5112 6.87961 14.0486 6.86575C13.5701 6.85133 13.1775 7.23511 13.1775 7.7105V11.7117C13.1776 11.9722 13.1025 12.2762 12.5455 12.5567Z" fill="#F9F8F9"/>
<path d="M40.4734 9.22313C40.4734 7.92305 39.3773 6.86534 38.0298 6.86534H36.4831C36.4828 6.86534 36.4824 6.86534 36.4822 6.86534H36.4813C36.0165 6.84122 35.6362 7.20236 35.6362 7.66772V13.4959C35.6362 13.9586 35.9927 14.3621 36.4553 14.376C36.9338 14.3904 37.3264 14.0066 37.3264 13.5313V12.1949L38.994 14.0897C39.161 14.2796 39.3943 14.3765 39.6288 14.3765C39.8307 14.3765 40.0335 14.3045 40.1955 14.1579C40.5423 13.8441 40.5497 13.299 40.2406 12.9479L38.9009 11.4258C39.8193 11.0863 40.4734 10.2273 40.4734 9.22313ZM38.0298 8.55551C38.4382 8.55551 38.7832 8.8612 38.7832 9.22313C38.7832 9.58505 38.4382 9.89086 38.0298 9.89086C37.8644 9.89086 37.5987 9.89187 37.3342 9.89311C37.3326 9.61288 37.3321 9.17986 37.3307 8.55551H38.0298Z" fill="#F9F8F9"/>
</svg>
