<svg width="57" height="50" viewBox="0 0 57 50" fill="none" xmlns="http://www.w3.org/2000/svg">
<path d="M26.6929 46.5554H29.9741V49.8366H26.6929V46.5554Z" fill="#665252"/>
<path d="M53.0518 20.0871H56.333V23.3683H53.0518V20.0871Z" fill="#D13465"/>
<path d="M7.00586 3.68121H10.2871V6.96243H7.00586V3.68121Z" fill="#FF525F"/>
<path d="M29.9741 43.2743H26.6928V42.5918C26.6928 39.9915 27.6654 37.7164 29.362 36.3514C29.7497 36.0373 29.9741 35.5695 29.9741 35.0712C29.9741 34.1661 29.2386 33.4306 28.3334 33.4306C27.4283 33.4306 26.6928 34.1661 26.6928 35.0712H23.4116C23.4116 32.3572 25.6194 30.1494 28.3334 30.1494C31.0474 30.1494 33.2553 32.3572 33.2553 35.0712C33.2553 36.5677 32.5872 37.9647 31.4209 38.9052C30.5011 39.6454 29.9741 40.9896 29.9741 42.5918V43.2743Z" fill="#665252"/>
<path d="M29.9743 35.0715C29.9743 35.5699 29.75 36.0376 29.3623 36.3517C28.9772 36.6615 28.6413 37.031 28.3337 37.4277V43.2746H29.9743V42.5921C29.9743 40.99 30.5014 39.6458 31.4211 38.9055C32.5875 37.965 33.2556 36.568 33.2556 35.0715C33.2556 32.3575 31.0477 30.1497 28.3337 30.1497V33.4309C29.2389 33.4309 29.9743 34.1664 29.9743 35.0715Z" fill="#4D3636"/>
<path d="M18.4899 10.2437C15.7759 10.2437 13.5681 8.03585 13.5681 5.32185C13.5681 2.60785 15.7759 0.400024 18.4899 0.400024C21.2039 0.400024 23.4118 2.60785 23.4118 5.32185C23.4118 8.03585 21.2039 10.2437 18.4899 10.2437Z" fill="#E1E6F0"/>
<path d="M43.0993 3.68124H39.818V0.400024H36.5368V3.68124H33.2556V6.96246H36.5368V10.2437H39.818V6.96246H43.0993V3.68124Z" fill="#FFBE40"/>
<path d="M6.89642 10.2437H3.6152V13.5249H0.333984V16.8061H3.6152V20.0873H6.89642V16.8061H10.1776V13.5249H6.89642V10.2437Z" fill="#FFDF40"/>
<path d="M26.6897 6.96289H29.9709V16.8065H26.6897V6.96289Z" fill="#E1E6F0"/>
<path d="M14.6072 14.3615L17.4492 12.7206L20.7302 18.4034L17.8882 20.0443L14.6072 14.3615Z" fill="#E1E6F0"/>
<path d="M52.9413 10.2437H44.7382C43.1732 10.2437 41.7776 10.9786 40.8755 12.1207L40.8723 12.1182L36.0674 18.208L38.6437 20.2396L40.5771 17.7891C41.4499 19.1687 42.9882 20.0873 44.7382 20.0873C47.4522 20.0873 49.66 17.8795 49.66 15.1655C49.66 14.5903 49.56 14.0384 49.3779 13.5249H52.9413V10.2437Z" fill="#C3D0E6"/>
</svg>
